<?xml version="1.0" encoding="UTF-8" standalone="no"?>
<svg
   xmlns:dc="http://purl.org/dc/elements/1.1/"
   xmlns:cc="http://creativecommons.org/ns#"
   xmlns:rdf="http://www.w3.org/1999/02/22-rdf-syntax-ns#"
   xmlns:svg="http://www.w3.org/2000/svg"
   xmlns="http://www.w3.org/2000/svg"
   xmlns:xlink="http://www.w3.org/1999/xlink"
   id="svg8"
   version="1.1"
   viewBox="0 0 95.312378 119.22854"
   height="119.22854mm"
   width="95.312378mm">
  <defs
     id="defs2">
    <linearGradient
       id="linearGradient920">
      <stop
         id="stop916"
         offset="0"
         style="stop-color:#01f5bf;stop-opacity:1;" />
      <stop
         id="stop918"
         offset="1"
         style="stop-color:#7252ff;stop-opacity:1" />
    </linearGradient>
    <linearGradient
       id="linearGradient912">
      <stop
         id="stop908"
         offset="0"
         style="stop-color:#02f5bf;stop-opacity:1;" />
      <stop
         id="stop910"
         offset="1"
         style="stop-color:#7053fd;stop-opacity:1" />
    </linearGradient>
    <linearGradient
       gradientUnits="userSpaceOnUse"
       y2="92.996269"
       x2="91.654823"
       y1="186.09904"
       x1="48.412964"
       id="linearGradient914"
       xlink:href="#linearGradient912" />
    <linearGradient
       gradientUnits="userSpaceOnUse"
       y2="191.27495"
       x2="115.58758"
       y1="213.4377"
       x1="33.040054"
       id="linearGradient922"
       xlink:href="#linearGradient920" />
  </defs>
  <metadata
     id="metadata5">
    <rdf:RDF>
      <cc:Work
         rdf:about="">
        <dc:format>image/svg+xml</dc:format>
        <dc:type
           rdf:resource="http://purl.org/dc/dcmitype/StillImage" />
        <dc:title></dc:title>
      </cc:Work>
    </rdf:RDF>
  </metadata>
  <g
     transform="translate(-33.975508,-92.996271)"
     id="layer1">
    <path
       id="path826"
       d="m 80.30031,187.92279 c -2.02212,-1.08509 -3.88021,-2.49778 -5.72937,-4.356 -1.82884,-1.8378 -3.12767,-3.52797 -4.35811,-5.67123 -1.32007,-2.2994 -3.12576,-6.90098 -4.26812,-10.87684 l -0.44639,-1.5536 -0.300485,0.4106 c -0.688426,0.94071 -1.270484,2.24646 -1.624774,3.64492 -0.501948,1.9813 -0.682468,3.68158 -0.852963,8.0339 -0.07096,1.81152 -0.150214,3.36042 -0.176112,3.44203 -0.05302,0.16704 -0.178439,0.20253 -0.98014,0.27728 -0.309837,0.0289 -0.61917,0.0975 -0.687409,0.1525 -0.06824,0.055 -0.287452,0.34762 -0.487143,0.6503 -0.499958,0.75782 -1.672616,1.89902 -2.549049,2.48068 -1.700565,1.12861 -3.884936,1.91068 -6.423395,2.29978 -1.020289,0.15639 -4.178897,0.27116 -3.979333,0.14459 0.06985,-0.0443 0.492547,-0.17953 0.939327,-0.30053 4.657829,-1.26136 9.790034,-4.01102 10.996904,-5.89176 0.404271,-0.63 0.570755,-1.2725 0.808552,-3.12037 0.117684,-0.9145 0.343629,-2.31118 0.502101,-3.10373 0.158471,-0.79255 0.541147,-3.01758 0.850392,-4.94453 0.374275,-2.33217 0.642032,-3.74754 0.800855,-4.23333 0.57917,-1.77153 1.569171,-3.61894 2.663431,-4.97013 0.342521,-0.42295 0.680001,-0.88015 0.749951,-1.016 0.0699,-0.13585 0.17106,-0.6661 0.22469,-1.17834 0.37667,-3.59763 1.18488,-7.30671 2.5174,-11.55301 0.53965,-1.71967 0.50253,-2.44077 -0.19118,-3.71381 -1.57261,-2.88594 -6.297284,-6.2712 -10.001583,-7.16619 l -0.611492,-0.14775 -0.377093,0.21076 c -1.361369,0.76089 -4.41908,3.507 -8.556253,7.68432 l -2.536329,2.56094 -1.242795,-0.0538 c -2.145269,-0.0929 -6.028027,-0.53192 -9.136217,-1.03313 -0.96241,-0.15519 -1.34123,-0.25025 -1.42073,-0.35651 -0.23679,-0.31648 -0.55851,-1.79924 -0.39023,-1.79849 0.0414,1.7e-4 0.6849,0.11582 1.42996,0.25698 2.8173,0.53373 4.481635,0.76339 7.026011,0.96951 1.442837,0.11688 2.647167,0.21251 2.676289,0.21251 0.02912,0 0.571532,-0.60619 1.205356,-1.34708 1.866398,-2.18167 2.844368,-3.23545 4.959113,-5.34352 2.075769,-2.06921 2.982602,-2.84386 4.120489,-3.51986 0.834438,-0.49573 2.194326,-1.13488 2.414622,-1.13488 0.535202,0 3.282457,1.09268 8.468542,3.36824 l 1.15242,0.50566 0.0536,-0.68812 c 0.0295,-0.37846 0.0537,-1.10721 0.0538,-1.61944 1.7e-4,-0.51224 0.0417,-1.71239 0.0925,-2.667 0.0988,-1.85947 0.0595,-2.20134 -0.25289,-2.20134 -0.40171,0 -0.43147,-0.14366 -0.43147,-2.0831 0,-1.37161 0.0293,-1.887 0.11932,-2.10258 0.22755,-0.54461 1.54338,-1.44609 3.66146,-2.50848 l 1.45244,-0.72852 -1.51162,-1.0703 c -2.20228,-1.55931 -3.52085,-2.64907 -4.34893,-3.59423 -1.248876,-1.42546 -1.427364,-2.00327 -1.06628,-3.45181 0.34898,-1.39998 3.29562,-9.58252 4.95358,-13.75564 1.20802,-3.040603 1.32588,-3.534057 1.365,-5.715001 0.0159,-0.884767 0.0295,-1.618966 0.0303,-1.631554 0.003,-0.05259 0.7565,0.367053 1.20792,0.672959 l 0.48684,0.329905 v 1.445124 c 0,1.713727 -0.0632,2.013779 -0.71488,3.395425 -2.11563,4.485252 -4.39567,10.895522 -5.50521,15.477812 -0.26136,1.07938 -0.27877,1.04005 1.04293,2.35649 2.19537,2.18662 4.88702,4.15817 5.67693,4.15817 0.18831,0 0.39978,-0.16863 1.03522,-0.8255 0.43921,-0.45403 1.00169,-1.07315 1.24995,-1.37583 0.24827,-0.30269 0.47983,-0.58115 0.5146,-0.61881 0.0348,-0.0377 0.30921,0.0667 0.60989,0.23202 1.22159,0.67147 2.33003,0.90158 4.34557,0.90213 0.93279,2.5e-4 1.70253,-0.0463 2.1872,-0.13214 0.83714,-0.14834 1.88628,-0.52515 2.35914,-0.84729 0.17216,-0.11729 0.328,-0.21325 0.34633,-0.21325 0.0183,0 0.29574,0.31433 0.61647,0.6985 0.32074,0.38418 0.90375,1.03188 1.29558,1.43934 0.59953,0.62343 0.75464,0.74083 0.97884,0.74083 0.52195,0 1.99209,-0.92743 3.65703,-2.30702 1.14396,-0.9479 3.14182,-2.94982 3.20834,-3.21486 0.0911,-0.36306 -1.19818,-5.00889 -2.17808,-7.84847 -0.85574,-2.47977 -2.37129,-6.24066 -3.41592,-8.47674 -0.71075,-1.521399 -0.79713,-1.911793 -0.79868,-3.609906 l -0.001,-1.369331 0.58383,-0.388131 c 0.32111,-0.213472 0.72588,-0.447482 0.89949,-0.520021 l 0.31566,-0.13189 -0.0573,0.873352 c -0.0724,1.104433 0.0604,2.602819 0.32185,3.631674 0.1115,0.438724 0.50708,1.540629 0.87906,2.448679 1.46064,3.565594 4.88426,13.078244 5.18018,14.393334 0.162,0.71991 0.11191,1.3503 -0.15137,1.905 -0.29391,0.61924 -1.43106,1.9157 -2.35111,2.68051 -0.78105,0.64925 -2.764,2.12646 -3.79036,2.82364 l -0.71786,0.48762 1.41246,0.70388 c 1.44046,0.71784 2.68132,1.47143 3.25827,1.9788 0.5818,0.51163 0.60169,0.59748 0.59238,2.5564 -0.005,0.96151 -0.0342,1.82985 -0.0659,1.92965 -0.0351,0.11054 -0.1529,0.20052 -0.30149,0.23023 -0.38945,0.0779 -0.44093,0.37808 -0.34095,1.98834 0.0473,0.76171 0.11186,2.24777 0.1435,3.30235 l 0.0575,1.91741 0.64323,-0.27851 c 6.35191,-2.75033 8.47025,-3.59866 8.98608,-3.59866 0.19923,0 1.58349,0.64279 2.35655,1.09428 1.07143,0.62575 1.96514,1.37027 3.76806,3.13906 1.89927,1.86331 3.62066,3.70788 5.29383,5.67266 0.575,0.67522 1.0913,1.2769 1.14733,1.33706 0.0831,0.0893 0.58679,0.0699 2.73765,-0.10523 2.94238,-0.23958 3.47813,-0.31044 6.48359,-0.85749 1.15785,-0.21076 2.11821,-0.37017 2.13412,-0.35425 0.10794,0.10793 -0.45008,1.92725 -0.59111,1.92725 -0.0244,0 -0.6266,0.0944 -1.33826,0.20981 -3.22625,0.52313 -7.06142,0.95056 -9.16794,1.02175 l -1.27,0.0429 -1.18533,-1.27767 c -2.01486,-2.17181 -6.37892,-6.31466 -8.255,-7.83654 -0.75856,-0.61534 -1.58094,-1.17806 -1.83469,-1.25539 -0.10103,-0.0308 -0.48814,0.0217 -0.86025,0.11676 -3.57608,0.91306 -8.09012,4.12589 -9.74536,6.93619 -0.39266,0.66667 -0.68304,1.60108 -0.68304,2.19799 0,0.35724 0.0986,0.81547 0.33386,1.55141 1.30653,4.0873 2.22405,8.2367 2.55242,11.54309 0.0555,0.5588 0.14762,1.1303 0.20473,1.27 0.0571,0.1397 0.3246,0.5207 0.59442,0.84667 1.13416,1.37011 2.15165,3.18791 2.74086,4.89667 0.33877,0.98247 0.37261,1.16071 1.24061,6.53333 0.16551,1.02446 0.39411,2.31531 0.50801,2.86854 0.23577,1.1452 0.39879,2.16954 0.58774,3.69312 0.28176,2.27199 0.74155,3.04993 2.58269,4.3697 2.29596,1.64582 6.41474,3.49003 9.45251,4.23243 1.03831,0.25375 0.8529,0.31231 -0.81651,0.25789 -2.26733,-0.0739 -3.9567,-0.35138 -5.715,-0.9387 -2.53265,-0.84595 -4.60496,-2.29358 -5.77894,-4.03693 -0.23899,-0.3549 -0.49945,-0.67019 -0.57879,-0.70063 -0.0793,-0.0305 -0.42347,-0.079 -0.76473,-0.10781 -0.40957,-0.0346 -0.66167,-0.0986 -0.74168,-0.18836 -0.0954,-0.107 -0.14124,-0.72141 -0.21539,-2.88759 -0.14422,-4.21348 -0.30698,-6.05384 -0.69635,-7.874 -0.24508,-1.14562 -0.68956,-2.47371 -1.08824,-3.25159 -0.34563,-0.67436 -0.8952,-1.48974 -1.00409,-1.48974 -0.0323,0 -0.16862,0.40958 -0.30286,0.91017 -0.60789,2.26679 -1.86756,5.85085 -2.91753,8.30107 -1.61376,3.76587 -3.3594,6.34587 -6.11599,9.03921 -1.73801,1.69813 -3.29082,2.87785 -5.23711,3.97881 -0.81974,0.4637 -0.93421,0.50444 -1.48167,0.52726 -0.57104,0.0238 -0.62302,0.009 -1.38551,-0.40038 z"
       style="fill:url(#linearGradient914);stroke-width:0.08466667;fill-opacity:1" />
    <path
       id="path826-3"
       d="m 33.975509,209.7922 v -2.42623 l 2.81517,-4.62227 c 3.145198,-5.16417 3.314331,-5.38903 4.478172,-5.95358 0.845251,-0.41003 1.393885,-0.52673 2.443323,-0.51974 1.014816,0.007 1.69923,0.15703 2.456673,0.53939 0.977525,0.49345 1.236147,0.84937 4.295494,5.91148 l 2.815167,4.65808 v 2.42134 2.42134 l -1.672167,-0.023 -1.672167,-0.023 -0.04233,-2.032 -0.04233,-2.032 -0.677334,-1.11955 -0.677333,-1.11955 -4.862904,0.0189 -4.862904,0.0189 -0.74327,1.22766 -0.74327,1.22767 -0.003,1.92617 -0.003,1.92616 H 35.6265 33.9755 Z m 12.504688,-7.20461 c -0.498167,-0.87942 -1.625805,-2.65682 -1.773742,-2.7958 -0.234606,-0.2204 -0.927142,-0.37056 -1.387549,-0.30086 -0.602714,0.0913 -0.791747,0.2855 -1.659899,1.70574 -0.454025,0.74276 -0.8255,1.37386 -0.8255,1.40244 0,0.0286 1.278599,0.052 2.841331,0.052 1.562731,0 2.825143,-0.0286 2.805359,-0.0635 z m 11.625311,1.62613 v -8.00469 l 6.921502,0.0294 c 6.343131,0.0269 6.963952,0.042 7.429502,0.18036 0.86723,0.2578 1.47963,0.63606 2.203299,1.36093 0.737471,0.73869 1.06366,1.2641 1.265251,2.03805 0.160488,0.61616 0.166698,1.88284 0.01209,2.46351 -0.391981,1.47215 -1.636559,2.74318 -3.24121,3.31013 l -0.66276,0.23416 -5.312831,0.0266 -5.312833,0.0266 v 3.16983 3.16982 h -1.651 -1.651 z m 13.682265,-1.7488 c 0.602929,-0.33026 1.039788,-1.11974 0.914238,-1.65215 -0.159059,-0.67451 -0.66871,-1.17504 -1.325909,-1.30219 -0.197411,-0.0382 -2.521101,-0.0711 -5.163762,-0.0731 l -4.80483,-0.004 v 1.61181 1.61182 l 5.05883,-0.0243 c 4.571892,-0.022 5.084112,-0.0382 5.321433,-0.16815 z m 8.370077,9.64767 c -0.0222,-0.0582 -0.0305,-3.64913 -0.01849,-7.97983 l 0.0218,-7.874 1.672158,-0.023 1.67217,-0.023 v 3.21913 3.21912 h 4.99533 4.995342 v -3.21912 -3.21913 l 1.672158,0.023 1.67217,0.023 v 7.95866 7.95867 l -1.67217,0.023 -1.672158,0.023 v -3.1768 -3.17679 h -4.995342 -4.99533 v 3.175 3.175 h -1.653659 c -1.24496,0 -1.663631,-0.0261 -1.694,-0.10583 z m 22.22833,-7.89338 v -8.00279 h 1.69376 1.69377 l -0.0216,7.97984 -0.0216,7.97983 -1.67217,0.023 -1.67216,0.023 z m 8.89,0.001 v -8.0043 l 6.5405,0.002 c 6.5989,0.002 7.27696,0.0284 8.14214,0.32046 1.49981,0.50634 2.82162,1.91523 3.19285,3.4032 0.0901,0.3612 0.11618,1.34882 0.11618,4.40266 v 3.937 l -0.21999,0.60131 c -0.55377,1.51359 -1.78071,2.65509 -3.37899,3.14368 -0.41584,0.12713 -1.20152,0.14514 -7.42886,0.17033 l -6.96383,0.0282 v -8.00425 z m 13.48053,4.69203 c 0.42118,-0.11697 0.81798,-0.46421 1.00765,-0.88177 0.14251,-0.31371 0.15559,-0.62762 0.15729,-3.77439 0.002,-3.39313 0,-3.43652 -0.18864,-3.80887 -0.11134,-0.22015 -0.34301,-0.48265 -0.55756,-0.63177 l -0.36707,-0.25514 -5.07277,-0.0231 -5.07277,-0.0231 v 4.74327 4.74327 l 4.8895,-8e-4 c 3.10218,0 5.0046,-0.0324 5.20437,-0.0879 z"
       style="fill:url(#linearGradient922);stroke-width:0.08466667;fill-opacity:1" />
  </g>
</svg>
